<svg width="96" height="26" viewBox="0 0 96 26" fill="none" xmlns="http://www.w3.org/2000/svg">
<path d="M1 5.14286C1 3.95982 1.95982 3 3.14286 3H7.42857C8.61161 3 9.57143 3.95982 9.57143 5.14286V9.42857C9.57143 10.6116 8.61161 11.5714 7.42857 11.5714H3.14286C1.95982 11.5714 1 10.6116 1 9.42857V5.14286ZM3.85714 5.85714V8.71429H6.71429V5.85714H3.85714ZM1 16.5714C1 15.3884 1.95982 14.4286 3.14286 14.4286H7.42857C8.61161 14.4286 9.57143 15.3884 9.57143 16.5714V20.8571C9.57143 22.0402 8.61161 23 7.42857 23H3.14286C1.95982 23 1 22.0402 1 20.8571V16.5714ZM3.85714 17.2857V20.1429H6.71429V17.2857H3.85714ZM14.5714 3H18.8571C20.0402 3 21 3.95982 21 5.14286V9.42857C21 10.6116 20.0402 11.5714 18.8571 11.5714H14.5714C13.3884 11.5714 12.4286 10.6116 12.4286 9.42857V5.14286C12.4286 3.95982 13.3884 3 14.5714 3ZM18.1429 5.85714H15.2857V8.71429H18.1429V5.85714ZM12.4286 15.1429C12.4286 14.75 12.75 14.4286 13.1429 14.4286H16C16.3929 14.4286 16.7143 14.75 16.7143 15.1429C16.7143 15.5357 17.0357 15.8571 17.4286 15.8571H18.8571C19.25 15.8571 19.5714 15.5357 19.5714 15.1429C19.5714 14.75 19.8929 14.4286 20.2857 14.4286C20.6786 14.4286 21 14.75 21 15.1429V19.4286C21 19.8214 20.6786 20.1429 20.2857 20.1429H17.4286C17.0357 20.1429 16.7143 19.8214 16.7143 19.4286C16.7143 19.0357 16.3929 18.7143 16 18.7143C15.6071 18.7143 15.2857 19.0357 15.2857 19.4286V22.2857C15.2857 22.6786 14.9643 23 14.5714 23H13.1429C12.75 23 12.4286 22.6786 12.4286 22.2857V15.1429ZM17.4286 23C17.2391 23 17.0574 22.9247 16.9235 22.7908C16.7895 22.6568 16.7143 22.4752 16.7143 22.2857C16.7143 22.0963 16.7895 21.9146 16.9235 21.7806C17.0574 21.6467 17.2391 21.5714 17.4286 21.5714C17.618 21.5714 17.7997 21.6467 17.9336 21.7806C18.0676 21.9146 18.1429 22.0963 18.1429 22.2857C18.1429 22.4752 18.0676 22.6568 17.9336 22.7908C17.7997 22.9247 17.618 23 17.4286 23ZM20.2857 23C20.0963 23 19.9146 22.9247 19.7806 22.7908C19.6467 22.6568 19.5714 22.4752 19.5714 22.2857C19.5714 22.0963 19.6467 21.9146 19.7806 21.7806C19.9146 21.6467 20.0963 21.5714 20.2857 21.5714C20.4752 21.5714 20.6568 21.6467 20.7908 21.7806C20.9247 21.9146 21 22.0963 21 22.2857C21 22.4752 20.9247 22.6568 20.7908 22.7908C20.6568 22.9247 20.4752 23 20.2857 23Z" fill="#0D001D"/>
<path d="M1 5.14286C1 3.95982 1.95982 3 3.14286 3H7.42857C8.61161 3 9.57143 3.95982 9.57143 5.14286V9.42857C9.57143 10.6116 8.61161 11.5714 7.42857 11.5714H3.14286C1.95982 11.5714 1 10.6116 1 9.42857V5.14286ZM3.85714 5.85714V8.71429H6.71429V5.85714H3.85714ZM1 16.5714C1 15.3884 1.95982 14.4286 3.14286 14.4286H7.42857C8.61161 14.4286 9.57143 15.3884 9.57143 16.5714V20.8571C9.57143 22.0402 8.61161 23 7.42857 23H3.14286C1.95982 23 1 22.0402 1 20.8571V16.5714ZM3.85714 17.2857V20.1429H6.71429V17.2857H3.85714ZM14.5714 3H18.8571C20.0402 3 21 3.95982 21 5.14286V9.42857C21 10.6116 20.0402 11.5714 18.8571 11.5714H14.5714C13.3884 11.5714 12.4286 10.6116 12.4286 9.42857V5.14286C12.4286 3.95982 13.3884 3 14.5714 3ZM18.1429 5.85714H15.2857V8.71429H18.1429V5.85714ZM12.4286 15.1429C12.4286 14.75 12.75 14.4286 13.1429 14.4286H16C16.3929 14.4286 16.7143 14.75 16.7143 15.1429C16.7143 15.5357 17.0357 15.8571 17.4286 15.8571H18.8571C19.25 15.8571 19.5714 15.5357 19.5714 15.1429C19.5714 14.75 19.8929 14.4286 20.2857 14.4286C20.6786 14.4286 21 14.75 21 15.1429V19.4286C21 19.8214 20.6786 20.1429 20.2857 20.1429H17.4286C17.0357 20.1429 16.7143 19.8214 16.7143 19.4286C16.7143 19.0357 16.3929 18.7143 16 18.7143C15.6071 18.7143 15.2857 19.0357 15.2857 19.4286V22.2857C15.2857 22.6786 14.9643 23 14.5714 23H13.1429C12.75 23 12.4286 22.6786 12.4286 22.2857V15.1429ZM17.4286 23C17.2391 23 17.0574 22.9247 16.9235 22.7908C16.7895 22.6568 16.7143 22.4752 16.7143 22.2857C16.7143 22.0963 16.7895 21.9146 16.9235 21.7806C17.0574 21.6467 17.2391 21.5714 17.4286 21.5714C17.618 21.5714 17.7997 21.6467 17.9336 21.7806C18.0676 21.9146 18.1429 22.0963 18.1429 22.2857C18.1429 22.4752 18.0676 22.6568 17.9336 22.7908C17.7997 22.9247 17.618 23 17.4286 23ZM20.2857 23C20.0963 23 19.9146 22.9247 19.7806 22.7908C19.6467 22.6568 19.5714 22.4752 19.5714 22.2857C19.5714 22.0963 19.6467 21.9146 19.7806 21.7806C19.9146 21.6467 20.0963 21.5714 20.2857 21.5714C20.4752 21.5714 20.6568 21.6467 20.7908 21.7806C20.9247 21.9146 21 22.0963 21 22.2857C21 22.4752 20.9247 22.6568 20.7908 22.7908C20.6568 22.9247 20.4752 23 20.2857 23Z" fill="url(#paint0_radial_64_8)"/>
<path d="M1 5.14286C1 3.95982 1.95982 3 3.14286 3H7.42857C8.61161 3 9.57143 3.95982 9.57143 5.14286V9.42857C9.57143 10.6116 8.61161 11.5714 7.42857 11.5714H3.14286C1.95982 11.5714 1 10.6116 1 9.42857V5.14286ZM3.85714 5.85714V8.71429H6.71429V5.85714H3.85714ZM1 16.5714C1 15.3884 1.95982 14.4286 3.14286 14.4286H7.42857C8.61161 14.4286 9.57143 15.3884 9.57143 16.5714V20.8571C9.57143 22.0402 8.61161 23 7.42857 23H3.14286C1.95982 23 1 22.0402 1 20.8571V16.5714ZM3.85714 17.2857V20.1429H6.71429V17.2857H3.85714ZM14.5714 3H18.8571C20.0402 3 21 3.95982 21 5.14286V9.42857C21 10.6116 20.0402 11.5714 18.8571 11.5714H14.5714C13.3884 11.5714 12.4286 10.6116 12.4286 9.42857V5.14286C12.4286 3.95982 13.3884 3 14.5714 3ZM18.1429 5.85714H15.2857V8.71429H18.1429V5.85714ZM12.4286 15.1429C12.4286 14.75 12.75 14.4286 13.1429 14.4286H16C16.3929 14.4286 16.7143 14.75 16.7143 15.1429C16.7143 15.5357 17.0357 15.8571 17.4286 15.8571H18.8571C19.25 15.8571 19.5714 15.5357 19.5714 15.1429C19.5714 14.75 19.8929 14.4286 20.2857 14.4286C20.6786 14.4286 21 14.75 21 15.1429V19.4286C21 19.8214 20.6786 20.1429 20.2857 20.1429H17.4286C17.0357 20.1429 16.7143 19.8214 16.7143 19.4286C16.7143 19.0357 16.3929 18.7143 16 18.7143C15.6071 18.7143 15.2857 19.0357 15.2857 19.4286V22.2857C15.2857 22.6786 14.9643 23 14.5714 23H13.1429C12.75 23 12.4286 22.6786 12.4286 22.2857V15.1429ZM17.4286 23C17.2391 23 17.0574 22.9247 16.9235 22.7908C16.7895 22.6568 16.7143 22.4752 16.7143 22.2857C16.7143 22.0963 16.7895 21.9146 16.9235 21.7806C17.0574 21.6467 17.2391 21.5714 17.4286 21.5714C17.618 21.5714 17.7997 21.6467 17.9336 21.7806C18.0676 21.9146 18.1429 22.0963 18.1429 22.2857C18.1429 22.4752 18.0676 22.6568 17.9336 22.7908C17.7997 22.9247 17.618 23 17.4286 23ZM20.2857 23C20.0963 23 19.9146 22.9247 19.7806 22.7908C19.6467 22.6568 19.5714 22.4752 19.5714 22.2857C19.5714 22.0963 19.6467 21.9146 19.7806 21.7806C19.9146 21.6467 20.0963 21.5714 20.2857 21.5714C20.4752 21.5714 20.6568 21.6467 20.7908 21.7806C20.9247 21.9146 21 22.0963 21 22.2857C21 22.4752 20.9247 22.6568 20.7908 22.7908C20.6568 22.9247 20.4752 23 20.2857 23Z" fill="url(#paint1_radial_64_8)"/>
<path d="M13.0806 3.5249L13.0804 3.5252L10.9633 6.35318L10.5948 6.84542L10.5153 6.23569L10.4333 5.60682L10.4332 5.60636C10.4074 5.40593 10.2959 5.22785 10.1253 5.1151C9.95805 5.00451 9.7498 4.9754 9.55741 5.03283L9.55699 5.03295L8.17425 5.44309L8.01905 5.48912L7.91354 5.36634L6.55505 3.78532C6.55493 3.78519 6.55482 3.78506 6.5547 3.78493C6.42103 3.63114 6.2315 3.54335 6.03295 3.54335C5.83264 3.54335 5.64071 3.6324 5.51262 3.78326L5.51168 3.78438L5.51167 3.78437L4.08206 5.44835L3.99454 5.55022L3.86129 5.53349L2.02545 5.30303L2.02519 5.303C1.79888 5.27435 1.5732 5.36047 1.42524 5.53119C1.27448 5.70514 1.21836 5.93722 1.27514 6.15601C1.27515 6.15605 1.27516 6.15609 1.27517 6.15613L2.86096 12.2337L2.90589 12.4059L2.75789 12.5047L1.55873 13.3054L1.5572 13.3065C1.35874 13.4369 1.24314 13.6657 1.25179 13.9049C1.26029 14.1401 1.39399 14.3585 1.60438 14.4769C1.60453 14.477 1.60467 14.4771 1.60482 14.4771L5.7794 16.7968L6.06908 16.9578L5.83474 17.1921L1.45215 21.5747C1.18209 21.8447 1.18346 22.2794 1.45121 22.5443C1.72271 22.8129 2.15809 22.8128 2.42181 22.5462L2.42291 22.5451L6.80941 18.1664L7.04374 17.9325L7.20456 18.2219L9.5242 22.3965C9.52428 22.3967 9.52436 22.3968 9.52444 22.3969L13.0806 3.5249ZM13.0806 3.5249C13.2239 3.3329 13.4554 3.23032 13.6922 3.25315C13.9312 3.27618 14.1405 3.42008 14.2463 3.63145L13.0806 3.5249ZM8.0548 16.921L8.18809 16.7878L13.0863 11.8896C13.3563 11.6195 13.355 11.1848 13.0872 10.9199C12.8157 10.6513 12.3803 10.6515 12.1166 10.918L12.1155 10.9191L7.21344 15.8134L7.08009 15.9465L6.91537 15.855L3.61866 14.0231L3.26031 13.8239L3.60142 13.5965L3.70655 13.5264C4.17275 13.2145 4.38927 12.6436 4.24814 12.102L2.95526 7.14927L2.86203 6.7921L3.22829 6.83807L4.19296 6.95914C4.193 6.95915 4.19304 6.95915 4.19308 6.95916C4.4224 6.98778 4.65154 6.89863 4.79978 6.72473L4.80035 6.72407L5.84326 5.50929L6.03295 5.28834L6.22263 5.50929L7.26531 6.72379C7.26539 6.72388 7.26547 6.72397 7.26555 6.72407C7.44384 6.93089 7.72464 7.01358 7.98514 6.9363C7.98515 6.9363 7.98516 6.9363 7.98517 6.93629L8.89122 6.66682L9.17307 6.583L9.21046 6.87466L9.44482 8.70269L9.44496 8.70379C9.47923 8.98079 9.67923 9.20999 9.95185 9.28173C10.2249 9.35359 10.5106 9.25278 10.6758 9.03059L10.6764 9.0298L13.274 5.56514L13.5166 5.24142L13.6976 5.6033L13.7249 5.65798L13.7251 5.65835C14.14 6.49167 15.0911 6.91037 15.9872 6.65435L17.4596 6.23254L17.8929 6.10841L17.7688 6.54172L17.347 8.01414L8.0548 16.921ZM8.0548 16.921L8.14628 17.0859L9.97821 20.3865L10.1773 20.7451L10.4048 20.4038L10.4749 20.2987M8.0548 16.921L10.4749 20.2987M10.4749 20.2987L10.4751 20.2984C10.787 19.8325 11.3577 19.6161 11.899 19.757L10.4749 20.2987ZM18.3437 10.2805L18.398 10.3077L18.7599 10.4886L18.4362 10.7313L14.9724 13.3282C14.9723 13.3282 14.9722 13.3283 14.9721 13.3284C14.7475 13.4985 14.6483 13.7853 14.7194 14.0528C14.7908 14.321 15.0199 14.5228 15.2994 14.5605C15.2996 14.5605 15.2998 14.5606 15.3001 14.5606L17.1267 14.7948L17.4183 14.8322L17.3345 15.114L17.065 16.0201L18.3437 10.2805ZM18.3437 10.2805C17.5095 9.86166 17.0911 8.91009 17.3469 8.01431L18.3437 10.2805ZM18.7133 17.9725L18.4918 18.1622L17.7848 18.7676L17.7845 18.7679C17.2902 19.1896 17.0412 19.8325 17.1241 20.479L18.7133 17.9725ZM18.7133 17.9725L18.4921 17.7826M18.7133 17.9725L18.4921 17.7826M18.4921 17.7826L17.2776 16.7399C17.2775 16.7399 17.2774 16.7398 17.2773 16.7397M18.4921 17.7826L17.2773 16.7397M17.2773 16.7397C17.0705 16.5614 16.9878 16.2807 17.065 16.0202L17.2773 16.7397ZM11.8993 19.7571L16.8519 21.0538L17.2109 21.1479L17.1631 20.7798L17.1241 20.4794L11.8993 19.7571Z" stroke="url(#paint2_linear_64_8)" stroke-opacity="0.05" stroke-width="0.5"/>
<path d="M40.4165 15.196H42.8995L44.1477 16.8018L45.3757 18.2322L47.69 21.1335H44.9641L43.3718 19.1768L42.5554 18.0163L40.4165 15.196ZM47.8991 13.0909C47.8991 14.5978 47.6135 15.8797 47.0423 16.9368C46.4755 17.9938 45.7018 18.8013 44.7212 19.359C43.7451 19.9123 42.6476 20.1889 41.4286 20.1889C40.2006 20.1889 39.0986 19.91 38.1225 19.3523C37.1464 18.7945 36.375 17.9871 35.8082 16.93C35.2415 15.873 34.9581 14.5933 34.9581 13.0909C34.9581 11.584 35.2415 10.3021 35.8082 9.24503C36.375 8.18797 37.1464 7.38281 38.1225 6.82955C39.0986 6.27178 40.2006 5.9929 41.4286 5.9929C42.6476 5.9929 43.7451 6.27178 44.7212 6.82955C45.7018 7.38281 46.4755 8.18797 47.0423 9.24503C47.6135 10.3021 47.8991 11.584 47.8991 13.0909ZM44.9371 13.0909C44.9371 12.1148 44.791 11.2917 44.4986 10.6214C44.2107 9.95123 43.8036 9.44295 43.2773 9.09659C42.7511 8.75024 42.1348 8.57706 41.4286 8.57706C40.7224 8.57706 40.1062 8.75024 39.5799 9.09659C39.0536 9.44295 38.6443 9.95123 38.3519 10.6214C38.064 11.2917 37.9201 12.1148 37.9201 13.0909C37.9201 14.067 38.064 14.8902 38.3519 15.5604C38.6443 16.2306 39.0536 16.7389 39.5799 17.0852C40.1062 17.4316 40.7224 17.6048 41.4286 17.6048C42.1348 17.6048 42.7511 17.4316 43.2773 17.0852C43.8036 16.7389 44.2107 16.2306 44.4986 15.5604C44.791 14.8902 44.9371 14.067 44.9371 13.0909ZM50.0633 20V6.18182H55.515C56.5586 6.18182 57.4492 6.36849 58.1869 6.74183C58.9291 7.11068 59.4936 7.63471 59.8804 8.31392C60.2718 8.98864 60.4674 9.78255 60.4674 10.6957C60.4674 11.6133 60.2695 12.4027 59.8737 13.0639C59.4778 13.7206 58.9043 14.2244 58.1531 14.5753C57.4065 14.9261 56.5023 15.1016 55.4408 15.1016H51.7906V12.7536H54.9685C55.5262 12.7536 55.9896 12.6771 56.3584 12.5241C56.7272 12.3712 57.0016 12.1418 57.1816 11.8359C57.366 11.5301 57.4582 11.15 57.4582 10.6957C57.4582 10.2369 57.366 9.85002 57.1816 9.53516C57.0016 9.22029 56.725 8.98189 56.3517 8.81996C55.9828 8.65353 55.5173 8.57031 54.955 8.57031H52.9848V20H50.0633ZM57.5257 13.7116L60.96 20H57.7348L54.3747 13.7116H57.5257Z" fill="#14002D"/>
<path d="M71.2614 20H69.3977L73.5852 8.36364H75.6136L79.8011 20H77.9375L74.6477 10.4773H74.5568L71.2614 20ZM71.5739 15.4432H77.6193V16.9205H71.5739V15.4432ZM81.4815 20V8.36364H85.6293C86.5346 8.36364 87.2846 8.52841 87.8793 8.85795C88.474 9.1875 88.919 9.63826 89.2145 10.2102C89.5099 10.7784 89.6577 11.4186 89.6577 12.1307C89.6577 12.8466 89.508 13.4905 89.2088 14.0625C88.9134 14.6307 88.4664 15.0814 87.8679 15.4148C87.2732 15.7443 86.5251 15.9091 85.6236 15.9091H82.7713V14.4205H85.4645C86.0365 14.4205 86.5005 14.322 86.8565 14.125C87.2126 13.9242 87.474 13.6515 87.6406 13.3068C87.8073 12.9621 87.8906 12.5701 87.8906 12.1307C87.8906 11.6913 87.8073 11.3011 87.6406 10.9602C87.474 10.6193 87.2107 10.3523 86.8509 10.1591C86.4948 9.96591 86.0251 9.86932 85.4418 9.86932H83.2372V20H81.4815ZM93.4716 8.36364V20H91.7159V8.36364H93.4716Z" fill="#0D0027" fill-opacity="0.55"/>
<defs>
<radialGradient id="paint0_radial_64_8" cx="0" cy="0" r="1" gradientUnits="userSpaceOnUse" gradientTransform="translate(1 23) rotate(-47.3271) scale(79.1336 79.1337)">
<stop stop-color="#9563FF"/>
<stop offset="1" stop-color="#9563FF" stop-opacity="0"/>
</radialGradient>
<radialGradient id="paint1_radial_64_8" cx="0" cy="0" r="1" gradientUnits="userSpaceOnUse" gradientTransform="translate(1.90911 21.6364) rotate(-41.7101) scale(28.0094 28.0093)">
<stop stop-color="#FF7F57"/>
<stop offset="1" stop-color="#9563FF" stop-opacity="0"/>
</radialGradient>
<linearGradient id="paint2_linear_64_8" x1="11.0002" y1="3" x2="11.0002" y2="23" gradientUnits="userSpaceOnUse">
<stop/>
<stop offset="1" stop-opacity="0"/>
</linearGradient>
</defs>
</svg>
